<?xml version="1.0" encoding="UTF-8"?>
<!DOCTYPE svg PUBLIC "-//W3C//DTD SVG 1.1//EN" "http://www.w3.org/Graphics/SVG/1.1/DTD/svg11.dtd">
<svg xmlns="http://www.w3.org/2000/svg" version="1.1" width="399px" height="394px" style="shape-rendering:geometricPrecision; text-rendering:geometricPrecision; image-rendering:optimizeQuality; fill-rule:evenodd; clip-rule:evenodd" xmlns:xlink="http://www.w3.org/1999/xlink">
<g><path style="opacity:0.973" fill="#f4f4f4" d="M 64.5,1.5 C 75.0176,-0.50205 83.0176,2.99795 88.5,12C 111.167,12.6667 133.833,12.6667 156.5,12C 164.325,0.836081 174.325,-1.49725 186.5,5C 195.417,13.251 196.75,22.5844 190.5,33C 202.047,52.5904 213.213,72.4238 224,92.5C 229.592,93.546 234.426,96.046 238.5,100C 261.507,100.833 284.507,100.666 307.5,99.5C 314.878,88.5458 324.544,86.0458 336.5,92C 345.841,99.5885 347.841,108.755 342.5,119.5C 352.8,138.295 363.3,156.961 374,175.5C 387.038,176.706 394.871,183.706 397.5,196.5C 395.956,209.877 388.456,216.877 375,217.5C 364.667,235.833 354.333,254.167 344,272.5C 344.727,276.255 345.56,280.088 346.5,284C 344.517,297.989 336.517,304.656 322.5,304C 315.895,302.53 310.895,298.863 307.5,293C 285.826,292.167 264.159,292.334 242.5,293.5C 238.067,301.056 231.4,305.056 222.5,305.5C 211.96,324.082 201.293,342.582 190.5,361C 196.903,371.651 195.237,380.984 185.5,389C 173.668,394.521 164.002,391.854 156.5,381C 133.833,380.333 111.167,380.333 88.5,381C 80.5495,392.543 70.5495,394.876 58.5,388C 49.5385,379.385 48.2052,369.718 54.5,359C 44.4668,341.101 34.3001,323.268 24,305.5C 4.29385,301.421 -1.70615,290.088 6,271.5C 10.7612,266.537 16.5945,263.87 23.5,263.5C 33.6667,245.833 43.8333,228.167 54,210.5C 52.174,206.153 51.0073,201.486 50.5,196.5C 50.5363,191.892 51.8696,187.725 54.5,184C 45.5534,167.273 36.2201,150.773 26.5,134.5C 12.5702,134.397 4.23686,127.564 1.5,114C 3.08873,102.41 9.58873,95.2433 21,92.5C 32,73.5 43,54.5 54,35.5C 53.9137,32.2975 52.9137,29.2975 51,26.5C 49.2565,14.6461 53.7565,6.31274 64.5,1.5 Z M 88.5,29.5 C 111.176,29.167 133.843,29.5003 156.5,30.5C 160.832,37.9208 167.332,41.9208 176,42.5C 186.667,61.1667 197.333,79.8333 208,98.5C 206.07,102.995 204.904,107.828 204.5,113C 204.423,116.333 205.09,119.5 206.5,122.5C 196.667,140.167 186.833,157.833 177,175.5C 173.397,177.123 169.564,178.29 165.5,179C 161.974,181.026 159.307,183.859 157.5,187.5C 134.841,188.666 112.174,188.833 89.5,188C 85.1389,181.313 78.9722,177.48 71,176.5C 60.8781,158.42 50.3781,140.586 39.5,123C 43.4172,115.146 42.4172,107.813 36.5,101C 47.7931,81.5815 58.9598,62.0815 70,42.5C 75.2524,41.2909 80.0858,39.1242 84.5,36C 86.2318,34.0281 87.5652,31.8614 88.5,29.5 Z M 243.5,117.5 C 264.844,117.167 286.177,117.5 307.5,118.5C 311.799,125.65 318.132,129.15 326.5,129C 337.248,147.831 348.248,166.498 359.5,185C 354.178,192.616 354.178,200.282 359.5,208C 348.288,226.254 337.455,244.754 327,263.5C 318.479,263.675 311.979,267.342 307.5,274.5C 285.5,275.833 263.5,275.833 241.5,274.5C 240.024,271.857 238.024,269.69 235.5,268C 231.096,265.702 226.596,263.868 222,262.5C 211.626,244.252 201.126,226.085 190.5,208C 194.426,200.559 194.426,193.059 190.5,185.5C 200.374,168.251 210.374,151.085 220.5,134C 228.187,134.44 234.687,131.94 240,126.5C 241.741,123.691 242.908,120.691 243.5,117.5 Z M 88.5,205.5 C 111.169,205.333 133.836,205.5 156.5,206C 160.906,212.873 167.239,216.706 175.5,217.5C 186.167,235.833 196.833,254.167 207.5,272.5C 203.561,280.139 203.561,287.806 207.5,295.5C 197.086,313.997 186.419,332.331 175.5,350.5C 167.014,351.235 160.681,355.235 156.5,362.5C 133.841,363.666 111.174,363.833 88.5,363C 87.4147,360.828 86.0814,358.828 84.5,357C 80.0858,353.876 75.2524,351.709 70,350.5C 59.9189,332.669 49.5856,315.002 39,297.5C 39.9638,293.29 40.7971,288.956 41.5,284.5C 41.0144,280.541 40.0144,276.708 38.5,273C 48.9507,254.381 59.6174,235.881 70.5,217.5C 78.5962,216.464 84.5962,212.464 88.5,205.5 Z"/></g>
</svg>
